<?xml version="1.0" encoding="utf-8"?>
<!-- Generator: Adobe Illustrator 17.1.0, SVG Export Plug-In . SVG Version: 6.00 Build 0)  -->
<!DOCTYPE svg PUBLIC "-//W3C//DTD SVG 1.1//EN" "http://www.w3.org/Graphics/SVG/1.1/DTD/svg11.dtd">
<svg version="1.1" id="Layer_1" xmlns="http://www.w3.org/2000/svg" xmlns:xlink="http://www.w3.org/1999/xlink" x="0px" y="0px"
	 viewBox="0 0 290 379.5" enable-background="new 0 0 290 379.5" xml:space="preserve">
<g>
	<path fill-rule="evenodd" clip-rule="evenodd" fill="#66E4FF" d="M147,152.5c54.5,0,98.6,44.2,98.6,98.6
		c0,54.5-44.2,98.6-98.6,98.6s-98.6-44.2-98.6-98.6C48.4,196.6,92.5,152.5,147,152.5z"/>
	<g>
		<path fill="#FFFFFF" d="M258.5,211c0-4.9-3.9-8.8-8.8-8.8c-1,0-1.9,0.2-2.8,0.5c-0.3-6.5-5.7-11.7-12.3-11.7
			c-1.1,0-2.1,0.1-3.1,0.4c-1.7-6.5-7.6-11.3-14.6-11.3c-7,0-12.9,4.8-14.6,11.2c-0.1,0-0.2,0-0.3,0c-5.5,0-10.1,3.8-11.4,8.8
			c-0.9-0.3-1.9-0.4-2.9-0.4c-5.6,0-10.1,4.5-10.1,10.1c0,5.6,4.5,10.1,10.1,10.1h62.2v0C254.6,219.7,258.5,215.8,258.5,211z"/>
		<path fill="#D9F8FF" d="M249.7,217.3L249.7,217.3l-62.2,0c-5.1,0-9.4-3.9-10-8.8c0,0.4-0.1,0.8-0.1,1.2c0,5.6,4.5,10.1,10.1,10.1
			h62.2v0c4.8-0.1,8.7-4,8.7-8.8c0-0.4,0-0.8-0.1-1.2C257.8,214,254.1,217.3,249.7,217.3z"/>
	</g>
	<ellipse fill="#DADADA" cx="147" cy="369.5" rx="52.9" ry="3.5"/>
	<g>
		<rect x="126.3" y="189.7" fill="#D8BE9C" width="6.1" height="46.1"/>
		<polygon fill="#C3A885" points="126.3,197.9 132.4,195.1 132.4,189.7 126.3,189.7 		"/>
	</g>
	<g>
		<rect x="160.4" y="189.7" fill="#D8BE9C" width="6.1" height="46.1"/>
		<polygon fill="#C3A885" points="160.4,197.9 166.5,195.1 166.5,189.7 160.4,189.7 		"/>
	</g>
	<g>
		<path fill="#FFFFFF" d="M107.7,260.7c0-5.6-4.5-10.1-10.1-10.1c-1.1,0-2.2,0.2-3.2,0.5c-0.4-7.4-6.5-13.3-14-13.3
			c-1.2,0-2.4,0.2-3.6,0.5c-1.9-7.4-8.7-12.9-16.7-12.9c-8,0-14.7,5.4-16.7,12.8c-0.1,0-0.2,0-0.3,0c-6.3,0-11.5,4.3-13,10.1
			c-1.1-0.3-2.2-0.5-3.4-0.5c-6.4,0-11.5,5.1-11.5,11.5c0,6.4,5.1,11.5,11.5,11.5h71.1v0C103.2,270.7,107.7,266.2,107.7,260.7z"/>
		<path fill="#D9F8FF" d="M97.7,267.9L97.7,267.9l-71.1,0c-5.9,0-10.7-4.4-11.4-10.1c-0.1,0.5-0.1,0.9-0.1,1.4
			c0,6.4,5.1,11.5,11.5,11.5h71.1v0c5.5-0.1,9.9-4.5,9.9-10.1c0-0.5,0-1-0.1-1.4C106.9,264.1,102.8,267.9,97.7,267.9z"/>
	</g>
	<g>
		<g>
			<path fill="#D0ECFA" d="M214.7,238l-13.3,49.8c-0.6,2.1-2.8,3.4-4.9,2.8l-46-12.3c-2.1-0.6-3.4-2.8-2.8-4.9l17.5-65.2
				c0.6-2.1,2.8-3.4,4.9-2.8l30.7,8.2l-0.3,16.4L214.7,238z"/>
		</g>
		<g>
			<path fill="#E0F3FF" d="M214.7,238l-12.3,46c-0.6,2.1-2.8,3.4-4.9,2.8l-46-12.3c-2.1-0.6-3.4-2.8-2.8-4.9l16.4-61.3
				c0.6-2.1,2.8-3.4,4.9-2.8l30.7,8.2l-0.3,16.4L214.7,238z"/>
		</g>
		<g>
			<path fill="#C6DCEA" d="M214.2,239.9c0.1-0.5,0.1-1-0.2-1.5l-12.6-21.9c-0.3-0.5-0.7-0.8-1.2-0.9l-1.9-0.5l-4.6,17.2
				c-0.6,2.1,0.7,4.3,2.8,4.9l17.3,4.6L214.2,239.9z"/>
		</g>
		<g>
			<path fill="#FFFFFF" d="M214.7,238c0.1-0.5,0.1-1-0.2-1.5l-12.6-21.9c-0.3-0.5-0.7-0.8-1.2-0.9l-1.9-0.5l-4.6,17.2
				c-0.6,2.1,0.7,4.3,2.8,4.9l17.3,4.6L214.7,238z"/>
		</g>
		
			<rect x="167.2" y="240.3" transform="matrix(0.9659 0.2588 -0.2588 0.9659 68.7631 -39.6659)" fill="#ACC5D6" width="35.7" height="2"/>
		
			<rect x="165.3" y="246.5" transform="matrix(0.9659 0.2588 -0.2588 0.9659 70.0824 -37.4377)" fill="#ACC5D6" width="23.8" height="2"/>
		
			<rect x="163.1" y="255.7" transform="matrix(0.9659 0.2588 -0.2588 0.9659 72.5908 -38.0804)" fill="#ACC5D6" width="35.7" height="2"/>
		
			<rect x="159" y="271" transform="matrix(0.9659 0.2588 -0.2588 0.9659 76.4185 -36.4949)" fill="#ACC5D6" width="35.7" height="2"/>
		
			<rect x="161.2" y="261.8" transform="matrix(0.9659 0.2588 -0.2588 0.9659 73.9101 -35.8522)" fill="#ACC5D6" width="23.8" height="2"/>
	</g>
	<g opacity="0.3">
		<path fill="#ADC6D6" d="M97.7,270.7c2.4,0,4.7-0.9,6.4-2.4c2.2-1.8,3.6-4.6,3.6-7.7c0,0,0,0,0,0c0-0.3,0-0.5,0-0.8
			c0-0.2,0-0.4-0.1-0.6c0,0,0,0,0,0c0,0,0,0,0,0c-0.7-4.9-4.9-8.7-10-8.7c-1.1,0-2.2,0.2-3.2,0.5c-0.4-7.4-6.5-13.3-14-13.3
			c-1.2,0-2.4,0.2-3.6,0.5c-1-3.7-3.1-6.9-6-9.2L82,270.7L97.7,270.7L97.7,270.7z"/>
	</g>
	<g>
		<g>
			<path fill="#D0ECFA" d="M131.4,220.4l13.4,49.9c0.6,2.1-0.7,4.3-2.8,4.9l-46,12.3c-2.1,0.6-4.3-0.7-4.9-2.8l-17.5-65.2
				c-0.6-2.1,0.7-4.3,2.8-4.9l30.7-8.2l8,14.3L131.4,220.4z"/>
		</g>
		<g>
			<path fill="#E1F3FF" d="M131.4,220.4l12.3,46c0.6,2.1-0.7,4.3-2.8,4.9l-46,12.3c-2.1,0.6-4.3-0.7-4.9-2.8l-16.5-61.4
				c-0.6-2.1,0.7-4.3,2.8-4.9l30.7-8.2l8,14.3L131.4,220.4z"/>
		</g>
		<g opacity="0.5">
			<path fill="#ACC5D6" d="M131.9,222.3c-0.1-0.5-0.5-0.9-0.9-1.2l-21.9-12.6c-0.5-0.3-1-0.3-1.5-0.2l-1.9,0.5l4.6,17.3
				c0.6,2.1,2.8,3.4,4.9,2.8l17.3-4.6L131.9,222.3z"/>
		</g>
		<g>
			<path fill="#FFFFFF" d="M131.4,220.4c-0.1-0.5-0.5-0.9-0.9-1.2l-21.9-12.6c-0.5-0.3-1-0.3-1.5-0.2l-1.9,0.5l4.6,17.3
				c0.6,2.1,2.8,3.4,4.9,2.8l17.3-4.6L131.4,220.4z"/>
		</g>
		
			<rect x="109.5" y="236.5" transform="matrix(0.9659 -0.2588 0.2588 0.9659 -57.4743 38.491)" fill="#ACC5D6" width="15.9" height="2"/>
		
			<rect x="111.2" y="243.3" transform="matrix(0.9659 -0.2588 0.2588 0.9659 -59.3084 38.1282)" fill="#ACC5D6" width="7.9" height="2"/>
		<g opacity="0.5">
			
				<rect x="100.8" y="240" transform="matrix(0.9659 -0.2588 0.2588 0.9659 -59.582 35.4351)" fill="#ACC5D6" width="7.9" height="7.9"/>
		</g>
		
			<rect x="112.6" y="248" transform="matrix(0.9659 -0.2588 0.2588 0.9659 -60.3488 39.6817)" fill="#ACC5D6" width="15.9" height="2"/>
		
			<rect x="114.3" y="254.8" transform="matrix(0.9659 -0.2588 0.2588 0.9659 -62.1829 39.3188)" fill="#ACC5D6" width="7.9" height="2"/>
		<g opacity="0.5">
			
				<rect x="94.3" y="254.1" transform="matrix(-0.9659 0.2588 -0.2588 -0.9659 260.0055 481.9405)" fill="#ACC5D6" width="7.9" height="7.9"/>
		</g>
		
			<rect x="115.7" y="259.6" transform="matrix(0.9659 -0.2588 0.2588 0.9659 -63.2232 40.8723)" fill="#ACC5D6" width="15.9" height="2"/>
		
			<rect x="117.3" y="266.3" transform="matrix(0.9659 -0.2588 0.2588 0.9659 -65.0574 40.5095)" fill="#ACC5D6" width="7.9" height="2"/>
		<g>
			<path fill="#ACC5D6" d="M96.6,244.1l1,3.8l-3.8,1l-1-3.8L96.6,244.1 M98,241.7l-7.7,2.1l2.1,7.7l7.7-2.1L98,241.7L98,241.7z"/>
		</g>
		<g>
			<path fill="#ACC5D6" d="M109.3,253.1l1,3.8l-3.8,1l-1-3.8L109.3,253.1 M110.7,250.6l-7.7,2.1l2.1,7.7l7.7-2.1L110.7,250.6
				L110.7,250.6z"/>
		</g>
		<g>
			<path fill="#ACC5D6" d="M102.8,267.2l1,3.8l-3.8,1l-1-3.8L102.8,267.2 M104.2,264.7l-7.7,2.1l2.1,7.7l7.7-2.1L104.2,264.7
				L104.2,264.7z"/>
		</g>
		<g opacity="0.5">
			
				<rect x="107" y="263.1" transform="matrix(0.9659 -0.2588 0.2588 0.9659 -65.331 37.8164)" fill="#ACC5D6" width="7.9" height="7.9"/>
		</g>
	</g>
	<path opacity="0.3" fill="#ADC6D6" d="M141,275.2c2.1-0.6,3.4-2.8,2.8-4.9l-4.8-17.9h-17.2v-2.8H119v2.8h-2.8h-5.6
		c-3.1,0-5.6,2.5-5.6,5.6c-3.1,0-5.6,2.5-5.6,5.6v16.9v5.8L141,275.2z"/>
	<g>
		<path fill="#CD2D28" d="M176.9,306.9h-61.9c-3.1,0-5.6-2.5-5.6-5.6v-53.4c0-3.1,2.5-5.6,5.6-5.6h61.9c3.1,0,5.6,2.5,5.6,5.6v53.4
			C182.6,304.4,180,306.9,176.9,306.9z"/>
		<path fill="#E4E4E4" d="M182.6,312.5h-73.1c-3.1,0-5.6-2.5-5.6-5.6v-53.4c0-3.1,2.5-5.6,5.6-5.6h73.1c3.1,0,5.6,2.5,5.6,5.6v53.4
			C188.2,310,185.7,312.5,182.6,312.5z"/>
		<path fill="#FFFFFF" d="M182.6,306.9h-73.1c-3.1,0-5.6-2.5-5.6-5.6v-47.8c0-3.1,2.5-5.6,5.6-5.6h73.1c3.1,0,5.6,2.5,5.6,5.6v47.8
			C188.2,304.4,185.7,306.9,182.6,306.9z"/>
		<path fill="#FF3A30" d="M103.8,270.4v-16.9c0-3.1,2.5-5.6,5.6-5.6h73.1c3.1,0,5.6,2.5,5.6,5.6v16.9H103.8z"/>
		<rect x="123.5" y="239.4" fill="#F7F7F7" width="2.8" height="14.1"/>
		<rect x="165.7" y="239.4" fill="#F7F7F7" width="2.8" height="14.1"/>
		<rect x="120.7" y="242.2" opacity="0.2" fill="#303030" width="2.8" height="11.2"/>
		<rect x="162.9" y="242.2" opacity="0.2" fill="#303030" width="2.8" height="11.2"/>
	</g>
	<path opacity="0.3" fill="#ADC6D6" d="M188.2,306.9v-5.6v-13.4c-2.2,1.8-3.9,4.3-4.6,7.1c-1.1-0.3-2.2-0.5-3.4-0.5
		c-5.9,0-10.7,4.4-11.4,10.1c0,0,0,0,0,0c0,0,0,0.1,0,0.1c0,0.1,0,0.2,0,0.3c0,0.3-0.1,0.7-0.1,1c0,0,0,0,0,0c0,1.1,0.2,2.2,0.5,3.2
		c0.2,0.6,0.4,1.1,0.6,1.6c0.3,0.6,0.6,1.1,0.9,1.7h11.9C185.7,312.5,188.2,310,188.2,306.9z"/>
	<g>
		<path fill="#EFE0F3" d="M215.2,80.1c0-44.9-29.8-72.1-68.9-72.1c0,0,0,0-0.1,0c20.3,0,30.8,27.2,30.8,72.1
			c0,64.1-23.4,110.4-23.4,110.4h9.4C163.1,190.5,215.2,144.2,215.2,80.1z"/>
		<path fill="#EFE0F3" d="M146.1,8c-39,0.1-68.7,27.3-68.7,72.1c0,64.1,52.1,110.4,52.1,110.4h9.3c0,0-23.4-46.3-23.4-110.4
			C115.4,35.3,125.9,8.1,146.1,8z"/>
		<path fill="#C474D2" d="M146.3,8c39,0,68.9,27.2,68.9,72.1c0,64.1-52.1,110.4-52.1,110.4h4.8c0,0,66.5-46.3,66.5-110.4
			C234.3,35.2,194.9,8,146.3,8z"/>
		<path fill="#C474D2" d="M77.4,80.1c0-44.8,29.7-72,68.7-72.1c0,0,0,0,0,0C97.6,8.1,58.3,35.3,58.3,80.1
			c0,64.1,66.5,110.4,66.5,110.4h4.8C129.5,190.5,77.4,144.2,77.4,80.1z"/>
		<path fill="#C474D2" d="M146.2,8c0,0-0.1,0-0.1,0c-20.2,0.1-30.8,27.3-30.8,72.1c0,64.1,23.4,110.4,23.4,110.4h14.9
			c0,0,23.4-46.3,23.4-110.4C177.1,35.2,166.5,8,146.2,8z"/>
	</g>
	<path opacity="0.3" fill="#802C8E" d="M175.5,181.7h-4.8h-9.4h-14.9h-9.3h-4.8c0,0-66.5-46.3-66.5-110.4c0-15.2,4.5-28.3,12.3-39.1
		c-12.5,12.1-20,28.3-20,47.9c0,64.1,66.5,110.4,66.5,110.4h4.8h9.3h14.9h9.4h4.8c0,0,18-12.6,35.3-33.7
		C188.6,172.6,175.5,181.7,175.5,181.7z"/>
	<g>
		<path fill="#FFFFFF" d="M265.2,311.5c0-5.6-4.5-10.1-10.1-10.1c-1.1,0-2.2,0.2-3.2,0.5c-0.4-7.4-6.5-13.3-14-13.3
			c-1.2,0-2.4,0.2-3.6,0.5c-1.9-7.4-8.7-12.9-16.7-12.9c-8,0-14.7,5.4-16.7,12.8c-0.1,0-0.2,0-0.3,0c-6.3,0-11.5,4.3-13,10.1
			c-1.1-0.3-2.2-0.5-3.4-0.5c-6.4,0-11.5,5.1-11.5,11.5c0,6.4,5.1,11.5,11.5,11.5h71.1v0C260.7,321.5,265.2,317,265.2,311.5z"/>
		<path fill="#D9F8FF" d="M255.2,318.7L255.2,318.7l-71.1,0c-5.9,0-10.7-4.4-11.4-10.1c-0.1,0.5-0.1,0.9-0.1,1.4
			c0,6.4,5.1,11.5,11.5,11.5h71.1v0c5.5-0.1,9.9-4.5,9.9-10.1c0-0.5,0-1-0.1-1.4C264.4,314.9,260.3,318.6,255.2,318.7z"/>
	</g>
</g>
</svg>
